HIERARCHY
ROOT Hips
{
	OFFSET 0.000000 0.000000 0.000000 
	CHANNELS 6 Xposition Yposition Zposition Zrotation Yrotation Xrotation
	JOINT LeftUpLeg
	{
		OFFSET 1.363060 -1.794630 0.839290 
		CHANNELS 3 Zrotation Yrotation Xrotation
		JOINT LeftLeg
		{
			OFFSET 2.448110 -6.726130 0.000000 
			CHANNELS 3 Zrotation Yrotation Xrotation
			JOINT LeftFoot
			{
				OFFSET 2.562200 -7.039590 0.000000 
				CHANNELS 3 Zrotation Yrotation Xrotation
				JOINT LeftToeBase
				{
					OFFSET 0.157640 -0.433110 2.322550 
					CHANNELS 3 Zrotation Yrotation Xrotation
					End Site
					{
						OFFSET 0.000000 0.000000 0.000000 
					}
				}
			}
		}
	}
	JOINT RightUpLeg
	{
		OFFSET -1.305520 -1.794630 0.839290 
		CHANNELS 3 Zrotation Yrotation Xrotation
		JOINT RightLeg
		{
			OFFSET -2.542530 -6.985550 0.000000 
			CHANNELS 3 Zrotation Yrotation Xrotation
			JOINT RightFoot
			{
				OFFSET -2.568260 -7.056230 0.000000 
				CHANNELS 3 Zrotation Yrotation Xrotation
				JOINT RightToeBase
				{
					OFFSET -0.164730 -0.452590 2.363150 
					CHANNELS 3 Zrotation Yrotation Xrotation
					End Site
					{
						OFFSET 0.000000 0.000000 0.000000 
					}
				}
			}
		}
	}
	JOINT Spine
	{
		OFFSET 0.028270 2.035590 -0.193380 
		CHANNELS 3 Zrotation Yrotation Xrotation
		JOINT Spine1
		{
			OFFSET 0.056720 2.048850 -0.042750 
			CHANNELS 3 Zrotation Yrotation Xrotation
			JOINT Neck1
			{
				OFFSET -0.054170 1.746240 0.172020 
				CHANNELS 3 Zrotation Yrotation Xrotation
				JOINT Head
				{
					OFFSET 0.104070 1.761360 -0.123970 
					CHANNELS 3 Zrotation Yrotation Xrotation
					End Site
					{
						OFFSET 0.000000 0.000000 0.000000 
					}
				}
			}
			JOINT LeftArm
			{
				OFFSET 3.362410 1.200890 -0.311210 
				CHANNELS 3 Zrotation Yrotation Xrotation
				JOINT LeftForeArm
				{
					OFFSET 4.983000 -0.000000 -0.000000 
					CHANNELS 3 Zrotation Yrotation Xrotation
					JOINT LeftHand
					{
						OFFSET 3.483560 -0.000000 -0.000000 
						CHANNELS 3 Zrotation Yrotation Xrotation
						JOINT LeftHandIndex1
						{
							OFFSET 0.715260 -0.000000 -0.000000 
							CHANNELS 3 Zrotation Yrotation Xrotation
							End Site
							{
								OFFSET 0.000000 0.000000 0.000000 
							}
						}
					}
				}
			}
			JOINT RightArm
			{
				OFFSET -3.136600 1.374050 -0.404650 
				CHANNELS 3 Zrotation Yrotation Xrotation
				JOINT RightForeArm
				{
					OFFSET -5.241900 -0.000000 -0.000000 
					CHANNELS 3 Zrotation Yrotation Xrotation
					JOINT RightHand
					{
						OFFSET -3.444170 -0.000000 -0.000000 
						CHANNELS 3 Zrotation Yrotation Xrotation
						JOINT RightHandIndex1
						{
							OFFSET -0.622530 -0.000000 -0.000000 
							CHANNELS 3 Zrotation Yrotation Xrotation
							End Site
							{
								OFFSET 0.000000 0.000000 0.000000 
							}
						}
					}
				}
			}
		}
	}
}
MOTION
Frames: 6
Frame Time: 0.041667
-29.999119 17.488925 -3.072857 0.628472 -0.866599 -4.568892 -25.733764 -20.526969 0.737249 -0.547794 10.336322 27.706669 -4.838119 17.697702 -10.865842 0.346100 -3.780300 -10.459300 31.030058 13.411962 3.853028 -0.601193 -10.564246 28.542361 2.616181 -18.327838 -29.257586 -0.175000 2.694400 -7.429000 1.317583 2.748974 2.475714 -7.868524 1.298634 7.357740 9.611952 -0.352134 36.119152 1.023200 2.903400 16.051400 -93.581621 5.678020 30.360488 15.616413 -22.125913 -5.601861 -1.244868 -4.581533 -4.290579 -7.125000 0.000000 0.000000 102.267040 -3.582437 30.191778 -14.050353 22.578698 -4.623859 1.021033 2.614868 -18.509537 7.125000 0.000000 0.000000 
-30.002264 17.487410 -3.073323 0.642905 -0.891268 -4.596265 -25.729596 -20.464487 0.740931 -0.546663 10.333497 27.706647 -4.829265 17.668212 -10.838959 0.339200 -3.742800 -10.354200 31.057420 13.453955 3.907222 -0.603231 -10.566408 28.557081 2.594030 -18.286087 -29.309439 -0.169400 2.651100 -7.308900 1.326312 2.743809 2.479136 -7.808638 1.288531 7.332684 9.621979 -0.309806 36.083552 1.038500 2.907000 15.983000 -93.612468 5.701803 30.411538 15.645819 -22.156285 -5.605578 -1.262109 -4.636804 -4.283353 -7.125000 0.000000 0.000000 102.231682 -3.616720 30.203642 -14.068639 22.622280 -4.650914 0.999864 2.609195 -18.535321 7.125000 0.000000 0.000000 
-30.005642 17.488226 -3.073556 0.629279 -0.893160 -4.620551 -25.707391 -20.420909 0.772078 -0.545968 10.325327 27.697240 -4.837267 17.683862 -10.807099 0.347800 -3.789500 -10.485100 31.105387 13.480410 3.947960 -0.604155 -10.569118 28.567814 2.573752 -18.245603 -29.352274 -0.166200 2.626600 -7.240800 1.332297 2.724263 2.476257 -7.816346 1.277849 7.292870 9.653809 -0.269625 36.081710 1.075100 2.910100 15.941500 -93.642744 5.723033 30.354115 15.650370 -22.157007 -5.602858 -1.252978 -4.660798 -4.241371 -7.125000 0.000000 0.000000 102.207828 -3.698357 30.355583 -14.108356 22.700928 -4.688646 0.982100 2.623028 -18.627662 7.125000 0.000000 0.000000 
-30.009021 17.490905 -3.072391 0.600564 -0.910903 -4.645962 -25.729464 -20.520187 0.872218 -0.543511 10.325292 27.710745 -4.881908 17.825437 -10.930062 0.354400 -3.824400 -10.583300 31.181635 13.590062 4.038337 -0.599001 -10.561990 28.551951 2.534226 -18.163722 -29.432260 -0.153000 2.520900 -6.947500 1.326529 2.744869 2.476729 -7.894489 1.297031 7.289863 9.670699 -0.276287 36.106476 1.089700 2.908800 15.953200 -93.588555 5.691687 30.344907 15.642070 -22.163333 -5.623883 -1.248160 -4.569073 -4.303108 -7.125000 0.000000 0.000000 102.230674 -3.737296 30.416167 -14.128501 22.743592 -4.709272 0.969127 2.634092 -18.762412 7.125000 0.000000 0.000000 
-30.007390 17.488342 -3.072158 0.515258 -0.888820 -4.656306 -25.709310 -20.706232 0.969859 -0.543554 10.324182 27.717067 -4.917778 17.941225 -11.060051 0.350900 -3.805900 -10.531300 31.242067 13.474299 4.030685 -0.598471 -10.558913 28.539367 2.531593 -18.117265 -29.358146 -0.152600 2.516900 -6.936500 1.333930 2.738368 2.481802 -7.973280 1.305291 7.320626 9.631175 -0.282008 36.125701 1.073000 2.904500 15.976000 -93.577674 5.627948 30.355328 15.642521 -22.167576 -5.641048 -1.240624 -4.512038 -4.381299 -7.125000 0.000000 0.000000 102.220128 -3.699941 30.312733 -14.130151 22.753080 -4.716195 0.956755 2.627629 -18.788957 7.125000 0.000000 0.000000 
-30.004594 17.486362 -3.073556 0.429972 -0.855803 -4.637950 -25.639408 -20.815292 0.983634 -0.542157 10.326009 27.722061 -4.931860 17.979261 -11.079084 0.352000 -3.811800 -10.547700 31.257968 13.251362 3.927338 -0.599673 -10.560500 28.528879 2.567886 -18.151992 -29.205379 -0.167800 2.639200 -7.275800 1.352271 2.706148 2.485237 -8.002521 1.295278 7.345861 9.624599 -0.248874 36.116864 1.085300 2.906200 15.961300 -93.634487 5.567679 30.303647 15.640470 -22.154543 -5.644304 -1.213418 -4.506947 -4.359265 -7.125000 0.000000 0.000000 102.166694 -3.645787 30.236339 -14.132817 22.749041 -4.708498 0.965081 2.625537 -18.764334 7.125000 0.000000 0.000000 
